# xmcd
# 
# Track frame offsets:
#     150
#     14037
#     25252
#     38055
#     50947
#     64815
#     75230
#     86904
#     97985
#     108927
#     123762
#     134105
#     147175
#     157300
#     170575
#     182120
#     194690
#     206257
#     216530
#     228697
#     238260
#     250842
# 
# Disc length: 3479
# 
# Revision: 2
# Processed by: cddbd v1.5.2PL0 Copyright (c) Steve Scherf et al.
# Submitted via: fre:ac v1.0.31
# 
DISCID=4e0d9516
DTITLE=Columbia Blues - Floyd Dixon Marshall Texas Is My Home
DYEAR=1991
DGENRE=Blues
TTITLE0=Hard Living Alone
TTITLE1=Please Don't Go
TTITLE2=Old Memories
TTITLE3=Hole in the Wall
TTITLE4=Time Rings About a Change
TTITLE5=Me Quieras
TTITLE6=Call Operator 210
TTITLE7=Ooh-Eee ! Ooh-Eee !
TTITLE8=Chicken Crowing
TTITLE9=Carlos
TTITLE10=Nose Trouble
TTITLE11=Reap What You Sow
TTITLE12=Judgement Day
TTITLE13=Instrumental Shuffle
TTITLE14=Ooh-Eee ! Ooh-Eee ! #2
TTITLE15=Hey Bartender
TTITLE16=Never Can Tell When a Woman Changes Her Mind
TTITLE17=Oh Baby
TTITLE18=What is Life Without a Home?
TTITLE19=Rita
TTITLE20=I'll Always Love You
TTITLE21=Oooh Little Girl
EXTD=
EXTT0=
EXTT1=
EXTT2=
EXTT3=
EXTT4=
EXTT5=
EXTT6=
EXTT7=
EXTT8=
EXTT9=
EXTT10=
EXTT11=
EXTT12=
EXTT13=
EXTT14=
EXTT15=
EXTT16=
EXTT17=
EXTT18=
EXTT19=
EXTT20=
EXTT21=
PLAYORDER=
